<svg xmlns="http://www.w3.org/2000/svg" viewBox="0 0 960 540" role="img" aria-label="t•< À• Ü‘ $X Ü Ü">
  <defs>
    <linearGradient id="sky2" x1="0" y1="0" x2="0" y2="1">
      <stop offset="0%" stop-color="#bae6fd"/>
      <stop offset="100%" stop-color="#f8fafc"/>
    </linearGradient>
    <linearGradient id="panel2" x1="0" y1="0" x2="0" y2="1">
      <stop offset="0%" stop-color="#0f2744"/>
      <stop offset="100%" stop-color="#1d4ed8"/>
    </linearGradient>
  </defs>
  <rect width="960" height="540" fill="url(#sky2)"/>
  <rect x="140" y="250" width="680" height="220" fill="#64748b"/>
  <rect x="140" y="250" width="680" height="28" fill="#475569"/>
  <polygon points="120,250 480,120 840,250" fill="#94a3b8"/>
  <g fill="url(#panel2)" stroke="#7dd3fc" stroke-width="1.5">
    <rect x="250" y="150" width="100" height="55" rx="3" transform="rotate(-18 300 177)"/>
    <rect x="360" y="135" width="100" height="55" rx="3" transform="rotate(-18 410 162)"/>
    <rect x="470" y="120" width="100" height="55" rx="3" transform="rotate(-18 520 147)"/>
    <rect x="300" y="195" width="100" height="55" rx="3" transform="rotate(-18 350 222)"/>
    <rect x="410" y="180" width="100" height="55" rx="3" transform="rotate(-18 460 207)"/>
    <rect x="520" y="165" width="100" height="55" rx="3" transform="rotate(-18 570 192)"/>
  </g>
  <rect x="430" y="320" width="100" height="150" fill="#334155"/>
  <text x="48" y="52" fill="#0b1d3a" font-family="system-ui,sans-serif" font-size="28" font-weight="700">$X Ü Ü</text>
  <text x="48" y="88" fill="#334155" font-family="system-ui,sans-serif" font-size="20">t•< À• Ü‘</text>
</svg>
